<svg width="21" height="21" viewBox="0 0 21 21" fill="none" xmlns="http://www.w3.org/2000/svg">
<path d="M10.5003 0.00488281C6.09622 0.00488281 2.50415 3.59695 2.50415 8.00104C2.50415 9.74786 3.0577 11.4086 4.10343 12.7987L10.0082 20.7539C10.0942 20.8768 10.328 20.9999 10.5003 20.9999C10.6849 20.9999 10.9064 20.8646 10.9924 20.7538C11.0169 20.7169 16.9587 12.7125 17.008 12.6387C17.0203 12.6387 17.0203 12.6387 17.0203 12.6265C17.9798 11.2733 18.4964 9.67403 18.4964 8.00104C18.4965 3.59699 14.9044 0.00488281 10.5003 0.00488281ZM10.5003 12.3067C8.12616 12.3067 6.1947 10.3753 6.1947 8.00104C6.1947 5.62681 8.12616 3.69543 10.5003 3.69543C12.8745 3.69543 14.8059 5.62681 14.8059 8.00104C14.8059 10.3753 12.8745 12.3067 10.5003 12.3067Z" fill="#FF833D"/>
<path d="M10.5 0V3.69054C12.8741 3.69054 14.8056 5.62193 14.8056 7.99616C14.8056 10.3704 12.8741 12.3018 10.5 12.3018V20.995C10.6846 20.995 10.9061 20.8597 10.9921 20.7489C11.0166 20.712 16.9584 12.7077 17.0077 12.6338C17.02 12.6338 17.02 12.6338 17.02 12.6216C17.9795 11.2684 18.4961 9.66915 18.4961 7.99616C18.4962 3.59207 14.9041 0 10.5 0Z" fill="#E86D28"/>
</svg>
