<svg width="34" height="28" viewBox="0 0 34 28" fill="none" xmlns="http://www.w3.org/2000/svg">
<path d="M30.3333 0.666504H3.66659C1.83325 0.666504 0.349919 2.1665 0.349919 3.99984L0.333252 23.9998C0.333252 25.8332 1.83325 27.3332 3.66659 27.3332H30.3333C32.1666 27.3332 33.6666 25.8332 33.6666 23.9998V3.99984C33.6666 2.1665 32.1666 0.666504 30.3333 0.666504ZM29.6666 7.74984L17.8833 15.1165C17.3499 15.4498 16.6499 15.4498 16.1166 15.1165L4.33325 7.74984C4.16613 7.65602 4.01978 7.52927 3.90307 7.37726C3.78635 7.22525 3.70169 7.05113 3.65421 6.86545C3.60673 6.67978 3.59742 6.4864 3.62685 6.29701C3.65627 6.10763 3.72381 5.92619 3.82539 5.76367C3.92696 5.60115 4.06046 5.46093 4.2178 5.3515C4.37513 5.24206 4.55304 5.16569 4.74074 5.127C4.92845 5.08831 5.12206 5.08811 5.30984 5.12642C5.49763 5.16472 5.67569 5.24073 5.83325 5.34984L16.9999 12.3332L28.1666 5.34984C28.3241 5.24073 28.5022 5.16472 28.69 5.12642C28.8778 5.08811 29.0714 5.08831 29.2591 5.127C29.4468 5.16569 29.6247 5.24206 29.782 5.3515C29.9394 5.46093 30.0729 5.60115 30.1744 5.76367C30.276 5.92619 30.3436 6.10763 30.373 6.29701C30.4024 6.4864 30.3931 6.67978 30.3456 6.86545C30.2982 7.05113 30.2135 7.22525 30.0968 7.37726C29.9801 7.52927 29.8337 7.65602 29.6666 7.74984Z" fill="url(#paint0_linear_198_9563)"/>
<defs>
<linearGradient id="paint0_linear_198_9563" x1="0.333252" y1="-0.970922" x2="38.3126" y2="6.38451" gradientUnits="userSpaceOnUse">
<stop stop-color="#53E88B"/>
<stop offset="1" stop-color="#15BE77"/>
</linearGradient>
</defs>
</svg>
