<svg width="34" height="34" viewBox="0 0 34 34" fill="none" xmlns="http://www.w3.org/2000/svg">
<path d="M28.7833 5.21687C26.0486 2.46437 22.4393 0.752221 18.5777 0.375603C14.716 -0.00101551 10.8439 0.981496 7.62893 3.15375C4.41399 5.32601 2.05768 8.55188 0.966227 12.2752C-0.125226 15.9986 0.116578 19.986 1.64995 23.5502C1.80977 23.8815 1.86221 24.2544 1.79995 24.6169L0.333286 31.6669C0.27678 31.9372 0.288318 32.2173 0.366865 32.482C0.445412 32.7467 0.588506 32.9878 0.783286 33.1835C0.94296 33.342 1.13308 33.4666 1.34218 33.5497C1.55128 33.6327 1.77503 33.6726 1.99995 33.6669H2.33329L9.46662 32.2335C9.82917 32.1899 10.1968 32.2416 10.5333 32.3835C14.0975 33.9169 18.0849 34.1587 21.8083 33.0673C25.5316 31.9758 28.7575 29.6195 30.9297 26.4046C33.102 23.1896 34.0845 19.3175 33.7079 15.4558C33.3313 11.5941 31.6191 7.98484 28.8666 5.2502L28.7833 5.21687ZM10.3333 18.6669C10.0036 18.6669 9.68142 18.5691 9.40733 18.386C9.13325 18.2028 8.91963 17.9425 8.79349 17.638C8.66734 17.3335 8.63433 16.9984 8.69864 16.675C8.76295 16.3517 8.92169 16.0548 9.15477 15.8217C9.38786 15.5886 9.68483 15.4299 10.0081 15.3656C10.3314 15.3012 10.6665 15.3343 10.9711 15.4604C11.2756 15.5865 11.5359 15.8002 11.7191 16.0742C11.9022 16.3483 12 16.6706 12 17.0002C12 17.4422 11.8244 17.8661 11.5118 18.1787C11.1992 18.4913 10.7753 18.6669 10.3333 18.6669ZM17 18.6669C16.6703 18.6669 16.3481 18.5691 16.074 18.386C15.7999 18.2028 15.5863 17.9425 15.4602 17.638C15.334 17.3335 15.301 16.9984 15.3653 16.675C15.4296 16.3517 15.5884 16.0548 15.8214 15.8217C16.0545 15.5886 16.3515 15.4299 16.6748 15.3656C16.9981 15.3012 17.3332 15.3343 17.6378 15.4604C17.9423 15.5865 18.2026 15.8002 18.3857 16.0742C18.5689 16.3483 18.6666 16.6706 18.6666 17.0002C18.6666 17.4422 18.491 17.8661 18.1785 18.1787C17.8659 18.4913 17.442 18.6669 17 18.6669ZM23.6666 18.6669C23.337 18.6669 23.0147 18.5691 22.7407 18.386C22.4666 18.2028 22.253 17.9425 22.1268 17.638C22.0007 17.3335 21.9677 16.9984 22.032 16.675C22.0963 16.3517 22.255 16.0548 22.4881 15.8217C22.7212 15.5886 23.0182 15.4299 23.3415 15.3656C23.6648 15.3012 23.9999 15.3343 24.3044 15.4604C24.609 15.5865 24.8693 15.8002 25.0524 16.0742C25.2355 16.3483 25.3333 16.6706 25.3333 17.0002C25.3333 17.4422 25.1577 17.8661 24.8451 18.1787C24.5326 18.4913 24.1086 18.6669 23.6666 18.6669Z" fill="url(#paint0_linear_198_9544)"/>
<defs>
<linearGradient id="paint0_linear_198_9544" x1="0.293213" y1="-1.75667" x2="38.9555" y2="4.24244" gradientUnits="userSpaceOnUse">
<stop stop-color="#53E88B"/>
<stop offset="1" stop-color="#15BE77"/>
</linearGradient>
</defs>
</svg>
